<svg xmlns="http://www.w3.org/2000/svg" width="400" height="400" viewBox="0 0 200 200">
  <defs>
    <linearGradient id="bg" x1="0%" y1="0%" x2="100%" y2="100%">
      <stop offset="0%" stop-color="#172554"/>
      <stop offset="55%" stop-color="#1d4ed8"/>
      <stop offset="100%" stop-color="#38bdf8"/>
    </linearGradient>
    <radialGradient id="glow" cx="50%" cy="35%" r="60%">
      <stop offset="0%" stop-color="#29D95E" stop-opacity="0.35"/>
      <stop offset="100%" stop-color="#29D95E" stop-opacity="0"/>
    </radialGradient>
    <filter id="softShadow" x="-20%" y="-20%" width="140%" height="140%">
      <feDropShadow dx="0" dy="4" stdDeviation="6" flood-color="#000000" flood-opacity="0.45"/>
    </filter>
  </defs>
  <rect width="200" height="200" fill="url(#bg)"/>
  <rect width="200" height="200" fill="url(#glow)"/>
  <rect x="8" y="8" width="184" height="184" rx="14" fill="none" stroke="#29D95E" stroke-opacity="0.25" stroke-width="1.5"/>
  <g filter="url(#softShadow)">
        <path d="M100 52 C88 72 84 98 84 122 L100 148 L116 122 C116 98 112 72 100 52Z" fill="#e2e8f0"/>
        <path d="M84 122 L72 138 L84 132 Z" fill="#29D95E"/>
        <path d="M116 122 L128 138 L116 132 Z" fill="#29D95E"/>
        <circle cx="100" cy="92" r="10" fill="#38bdf8"/></g>
  <rect x="0" y="156" width="200" height="44" fill="rgba(0,0,0,0.42)"/>
  <text x="100" y="182" text-anchor="middle" fill="#ffffff" font-family="Segoe UI, Arial, sans-serif" font-size="11" font-weight="700" letter-spacing="0.08em">GO RUSH</text>
</svg>